<svg width="202" height="63" viewBox="0 0 202 63" fill="none" xmlns="http://www.w3.org/2000/svg">
<path d="M10.3539 56.4634V56.4351C10.3539 55.7358 10.2261 55.0885 9.9704 54.4931C9.71475 53.8883 9.3502 53.3638 8.87676 52.9197C8.41279 52.4755 7.85414 52.1306 7.20079 51.8849C6.55692 51.6298 5.84676 51.5022 5.07033 51.5022H1.19287V61.4247H5.07033C5.84676 61.4247 6.55692 61.2971 7.20079 61.042C7.85414 60.7868 8.41279 60.4372 8.87676 59.993C9.3502 59.5489 9.71475 59.0244 9.9704 58.4196C10.2261 57.8148 10.3539 57.1627 10.3539 56.4634ZM8.06719 56.4918C8.06719 56.936 7.99144 57.3376 7.83994 57.6967C7.6979 58.0558 7.49433 58.3676 7.2292 58.6322C6.97354 58.8968 6.66108 59.1 6.29179 59.2417C5.92251 59.3835 5.51536 59.4544 5.07033 59.4544H3.38015V53.4725H5.07033C5.51536 53.4725 5.92251 53.5481 6.29179 53.6993C6.66108 53.8411 6.97354 54.0442 7.2292 54.3088C7.49433 54.5734 7.6979 54.89 7.83994 55.2586C7.99144 55.6271 8.06719 56.0287 8.06719 56.4634V56.4918Z" fill="black"/>
<path d="M20.1572 61.4247V59.4827H14.76V57.399H19.447V55.457H14.76V53.4442H20.0862V51.5022H12.5869V61.4247H20.1572Z" fill="black"/>
<path d="M35.3364 56.4493C35.3364 55.7311 35.2323 55.0601 35.0239 54.4364C34.8156 53.8127 34.5174 53.2693 34.1292 52.8063C33.7504 52.3432 33.2864 51.9841 32.7372 51.729C32.1975 51.4644 31.5963 51.3321 30.9335 51.3321C30.2706 51.3321 29.6646 51.4644 29.1155 51.729C28.5757 51.9936 28.1118 52.3574 27.7235 52.8205C27.3353 53.2835 27.0323 53.8316 26.8145 54.4648C26.6062 55.0885 26.5021 55.7594 26.5021 56.4776C26.5021 57.2053 26.6062 57.8809 26.8145 58.5046C27.0229 59.1189 27.3164 59.6575 27.6951 60.1206C28.0834 60.5836 28.5473 60.9475 29.087 61.2121C29.6362 61.4672 30.2422 61.5948 30.905 61.5948C31.5679 61.5948 32.1691 61.4625 32.7088 61.1979C33.258 60.9333 33.7267 60.5695 34.1149 60.1064C34.5032 59.6434 34.8014 59.1 35.0097 58.4763C35.2275 57.8526 35.3364 57.1769 35.3364 56.4493ZM33.0923 56.4776C33.0923 56.9312 33.0402 57.3517 32.9361 57.7392C32.8414 58.1172 32.6994 58.4479 32.51 58.7314C32.3206 59.0149 32.0934 59.237 31.8282 59.3977C31.5631 59.5489 31.2649 59.6245 30.9335 59.6245C30.602 59.6245 30.299 59.5441 30.0245 59.3835C29.7593 59.2228 29.5321 59.0008 29.3427 58.7173C29.1533 58.4338 29.0066 58.0983 28.9024 57.7108C28.7982 57.3234 28.7462 56.9029 28.7462 56.4493C28.7462 55.9957 28.7935 55.5751 28.8882 55.1877C28.9924 54.8002 29.1391 54.4695 29.3285 54.1954C29.5179 53.9119 29.7451 53.6946 30.0102 53.5434C30.2754 53.3827 30.5736 53.3024 30.905 53.3024C31.2365 53.3024 31.5347 53.3827 31.7998 53.5434C32.0744 53.704 32.3064 53.9261 32.4958 54.2096C32.6852 54.4931 32.8319 54.8286 32.9361 55.216C33.0402 55.6035 33.0923 56.024 33.0923 56.4776Z" fill="black"/>
<path d="M36.7351 52.2818L37.1896 54.0679L38.9224 53.6426V61.4247H41.0813V51.4313H39.5899L36.7351 52.2818Z" fill="black"/>
<path d="M58.0921 61.4247L53.8311 51.4313H51.8143L47.5533 61.4247H49.7832L50.6922 59.1992H54.8964L55.8054 61.4247H58.0921ZM54.1152 57.2714H51.4734L52.7943 54.0537L54.1152 57.2714Z" fill="black"/>
<path d="M72.8611 56.4493C72.8611 55.7311 72.7569 55.0601 72.5486 54.4364C72.3403 53.8127 72.042 53.2693 71.6538 52.8063C71.2751 52.3432 70.8111 51.9841 70.2619 51.729C69.7222 51.4644 69.1209 51.3321 68.4581 51.3321C67.7953 51.3321 67.1893 51.4644 66.6401 51.729C66.1004 51.9936 65.6364 52.3574 65.2482 52.8205C64.86 53.2835 64.557 53.8316 64.3392 54.4648C64.1309 55.0885 64.0267 55.7594 64.0267 56.4776C64.0267 57.2053 64.1309 57.8809 64.3392 58.5046C64.5475 59.1189 64.841 59.6575 65.2198 60.1206C65.608 60.5836 66.072 60.9475 66.6117 61.2121C67.1609 61.4672 67.7669 61.5948 68.4297 61.5948C69.0925 61.5948 69.6938 61.4625 70.2335 61.1979C70.7827 60.9333 71.2514 60.5695 71.6396 60.1064C72.0278 59.6434 72.3261 59.1 72.5344 58.4763C72.7522 57.8526 72.8611 57.1769 72.8611 56.4493ZM70.617 56.4776C70.617 56.9312 70.5649 57.3517 70.4607 57.7392C70.3661 58.1172 70.224 58.4479 70.0347 58.7314C69.8453 59.0149 69.618 59.237 69.3529 59.3977C69.0878 59.5489 68.7895 59.6245 68.4581 59.6245C68.1267 59.6245 67.8237 59.5441 67.5491 59.3835C67.284 59.2228 67.0567 59.0008 66.8674 58.7173C66.678 58.4338 66.5312 58.0983 66.4271 57.7108C66.3229 57.3234 66.2708 56.9029 66.2708 56.4493C66.2708 55.9957 66.3182 55.5751 66.4129 55.1877C66.517 54.8002 66.6638 54.4695 66.8532 54.1954C67.0425 53.9119 67.2698 53.6946 67.5349 53.5434C67.8 53.3827 68.0983 53.3024 68.4297 53.3024C68.7611 53.3024 69.0594 53.3827 69.3245 53.5434C69.5991 53.704 69.8311 53.9261 70.0205 54.2096C70.2098 54.4931 70.3566 54.8286 70.4607 55.216C70.5649 55.6035 70.617 56.024 70.617 56.4776Z" fill="black"/>
<path d="M79.813 51.4313L74.359 57.7392L74.7141 59.2843H79.5716V61.4247H81.6594V59.2843H82.9945V57.5124H81.6594V51.4313H79.813ZM79.5716 57.5124H76.9298L79.5716 54.4223V57.5124Z" fill="black"/>
<path d="M98.8915 56.4634V56.4351C98.8915 55.7358 98.7637 55.0885 98.508 54.4931C98.2523 53.8883 97.8878 53.3638 97.4144 52.9197C96.9504 52.4755 96.3917 52.1306 95.7384 51.8849C95.0945 51.6298 94.3844 51.5022 93.6079 51.5022H89.7305V61.4247H93.6079C94.3844 61.4247 95.0945 61.2971 95.7384 61.042C96.3917 60.7868 96.9504 60.4372 97.4144 59.993C97.8878 59.5489 98.2523 59.0244 98.508 58.4196C98.7637 57.8148 98.8915 57.1627 98.8915 56.4634ZM96.6048 56.4918C96.6048 56.936 96.529 57.3376 96.3775 57.6967C96.2355 58.0558 96.0319 58.3676 95.7668 58.6322C95.5111 58.8968 95.1987 59.1 94.8294 59.2417C94.4601 59.3835 94.053 59.4544 93.6079 59.4544H91.9178V53.4725H93.6079C94.053 53.4725 94.4601 53.5481 94.8294 53.6993C95.1987 53.8411 95.5111 54.0442 95.7668 54.3088C96.0319 54.5734 96.2355 54.89 96.3775 55.2586C96.529 55.6271 96.6048 56.0287 96.6048 56.4634V56.4918Z" fill="black"/>
<path d="M108.695 61.4247V59.4827H103.298V57.399H107.985V55.457H103.298V53.4442H108.624V51.5022H101.125V61.4247H108.695Z" fill="black"/>
<path d="M124.627 56.4634V56.4351C124.627 55.7358 124.499 55.0885 124.243 54.4931C123.988 53.8883 123.623 53.3638 123.15 52.9197C122.686 52.4755 122.127 52.1306 121.474 51.8849C120.83 51.6298 120.12 51.5022 119.343 51.5022H115.466V61.4247H119.343C120.12 61.4247 120.83 61.2971 121.474 61.042C122.127 60.7868 122.686 60.4372 123.15 59.993C123.623 59.5489 123.988 59.0244 124.243 58.4196C124.499 57.8148 124.627 57.1627 124.627 56.4634ZM122.34 56.4918C122.34 56.936 122.264 57.3376 122.113 57.6967C121.971 58.0558 121.767 58.3676 121.502 58.6322C121.247 58.8968 120.934 59.1 120.565 59.2417C120.196 59.3835 119.788 59.4544 119.343 59.4544H117.653V53.4725H119.343C119.788 53.4725 120.196 53.5481 120.565 53.6993C120.934 53.8411 121.247 54.0442 121.502 54.3088C121.767 54.5734 121.971 54.89 122.113 55.2586C122.264 55.6271 122.34 56.0287 122.34 56.4634V56.4918Z" fill="black"/>
<path d="M134.43 61.4247V59.4827H129.033V57.399H133.72V55.457H129.033V53.4442H134.359V51.5022H126.86V61.4247H134.43Z" fill="black"/>
<path d="M144.641 61.4247V59.5111H139.173L144.641 53.1607V51.5022H136.531V53.4158H141.829L136.361 59.7662V61.4247H144.641Z" fill="black"/>
<path d="M154.569 61.4247V59.4827H149.172V57.399H153.859V55.457H149.172V53.4442H154.498V51.5022H146.999V61.4247H154.569Z" fill="black"/>
<path d="M166.74 61.4247V51.5022H164.382L161.769 55.698L159.155 51.5022H156.798V61.4247H158.942V54.9892L161.712 59.1851H161.769L164.567 54.9467V61.4247H166.74Z" fill="black"/>
<path d="M177.864 58.7031V58.6747C177.864 58.0132 177.698 57.4982 177.367 57.1297C177.036 56.7517 176.581 56.454 176.004 56.2366C176.183 56.1421 176.349 56.0287 176.501 55.8964C176.662 55.7641 176.799 55.613 176.913 55.4429C177.036 55.2633 177.13 55.0648 177.197 54.8475C177.272 54.6301 177.31 54.3797 177.31 54.0962V54.0679C177.31 53.2835 177.017 52.6598 176.43 52.1968C175.852 51.7337 175.052 51.5022 174.029 51.5022H169.413V61.4247H174.143C174.702 61.4247 175.208 61.368 175.663 61.2546C176.127 61.1412 176.52 60.9711 176.842 60.7443C177.173 60.5175 177.424 60.234 177.594 59.8938C177.774 59.5536 177.864 59.1567 177.864 58.7031ZM175.137 54.4648C175.137 54.8333 174.995 55.1026 174.711 55.2727C174.427 55.4334 174.044 55.5137 173.561 55.5137H171.544V53.4158H173.703C174.167 53.4158 174.522 53.5056 174.768 53.6851C175.014 53.8552 175.137 54.1057 175.137 54.4364V54.4648ZM175.691 58.4338C175.691 58.8023 175.554 59.0764 175.279 59.2559C175.005 59.426 174.626 59.5111 174.143 59.5111H171.544V57.3281H174.072C174.64 57.3281 175.052 57.4273 175.308 57.6258C175.563 57.8148 175.691 58.0747 175.691 58.4054V58.4338Z" fill="black"/>
<path d="M188.54 61.4247L186.111 57.881C186.746 57.6447 187.257 57.2761 187.645 56.7753C188.043 56.265 188.242 55.6082 188.242 54.805V54.7766C188.242 53.7466 187.91 52.9433 187.248 52.3669C186.594 51.7904 185.676 51.5022 184.492 51.5022H179.947V61.4247H182.135V58.2495H183.853L185.984 61.4247H188.54ZM186.026 54.9184C186.026 55.3436 185.879 55.6838 185.586 55.939C185.302 56.1941 184.89 56.3217 184.35 56.3217H182.135V53.4725H184.308C184.847 53.4725 185.269 53.5906 185.572 53.8269C185.875 54.0631 186.026 54.4175 186.026 54.89V54.9184Z" fill="black"/>
<path d="M200.622 56.4634V56.4351C200.622 55.7263 200.49 55.0648 200.225 54.4506C199.969 53.8269 199.604 53.2882 199.131 52.8346C198.667 52.3716 198.113 52.0078 197.469 51.7432C196.825 51.4691 196.12 51.3321 195.353 51.3321C194.586 51.3321 193.876 51.4691 193.222 51.7432C192.579 52.0078 192.02 52.3763 191.547 52.8488C191.083 53.3119 190.718 53.8552 190.453 54.4789C190.188 55.0932 190.055 55.7547 190.055 56.4634V56.4918C190.055 57.2005 190.183 57.8668 190.439 58.4905C190.704 59.1047 191.068 59.6434 191.532 60.1064C192.006 60.56 192.564 60.9238 193.208 61.1979C193.852 61.4625 194.558 61.5948 195.325 61.5948C196.091 61.5948 196.797 61.4625 197.441 61.1979C198.094 60.9238 198.653 60.5553 199.117 60.0922C199.59 59.6197 199.959 59.0764 200.225 58.4621C200.49 57.8384 200.622 57.1722 200.622 56.4634ZM198.336 56.4918C198.336 56.917 198.26 57.3187 198.108 57.6967C197.966 58.0652 197.763 58.3912 197.498 58.6747C197.242 58.9582 196.929 59.1803 196.56 59.341C196.191 59.5016 195.789 59.5819 195.353 59.5819C194.908 59.5819 194.501 59.5016 194.131 59.341C193.772 59.1709 193.454 58.9441 193.18 58.6606C192.915 58.3771 192.706 58.0463 192.555 57.6683C192.413 57.2903 192.342 56.8887 192.342 56.4634V56.4351C192.342 56.0098 192.413 55.6129 192.555 55.2444C192.706 54.8664 192.91 54.5356 193.166 54.2521C193.431 53.9686 193.743 53.7466 194.103 53.5859C194.472 53.4253 194.879 53.3449 195.325 53.3449C195.76 53.3449 196.163 53.43 196.532 53.6001C196.901 53.7607 197.218 53.9828 197.483 54.2663C197.758 54.5498 197.966 54.8806 198.108 55.2586C198.26 55.6366 198.336 56.0382 198.336 56.4634V56.4918Z" fill="black"/>
<path d="M10.96 36.2652H22.4706V28.6483H31.9692V44.1H1.57812V0H31.9692V16.068H22.4706V8.14089H10.96V36.2652Z" fill="black"/>
<path d="M44.189 36.2652H55.7038V28.6483H65.2023V44.1H34.8113V0H65.2023V16.068H55.7038V8.14089H44.189V36.2652Z" fill="black"/>
<path d="M84.4286 14.8942L89.7529 0H100.585L91.5191 22.1506L101.205 44.1H90.1861L84.4911 29.3399L78.8004 44.1H67.7854L77.284 22.2092L68.027 0H78.8586L84.4286 14.8942Z" fill="black"/>
<path d="M113.198 32.3288V44.1H103.666V0H133.078V32.245L113.198 32.3288ZM123.696 8.14089H113.044V24.2341H123.696V8.14089Z" fill="black"/>
<path d="M157.876 31.5994L157.858 36.2526H146.281V32.3833L166.798 19.9497V4.89628L162.558 0H137.362V12.6222H146.281L146.277 8.14089H157.854L157.858 16.2524L137.362 28.6272V44.1H166.798H166.806V31.5994H157.876Z" fill="white"/>
<path d="M191.487 31.5994L191.475 36.2526H179.897V32.3833L200.411 19.9497V4.89628L196.174 0H170.974V12.6222H179.897L179.894 8.14089H191.471L191.475 16.2524L170.974 28.6272V44.1H200.411H200.423V31.5994H191.487Z" fill="white"/>
</svg>